<svg id="Capa_1" data-name="Capa 1" xmlns="http://www.w3.org/2000/svg" viewBox="0 0 1366 421.19"><defs><style>.cls-1,.cls-2{fill:#fff;}.cls-2{fill-rule:evenodd;}.cls-3{fill:none;}</style></defs><title>logo horizontal</title><path class="cls-1" d="M484.84,99h23.44v41.91a127.07,127.07,0,0,0,.48,13.27,25.63,25.63,0,0,0,1.58,6.74,9.74,9.74,0,0,0,4.7,5,17.58,17.58,0,0,0,8.17,1.74,17.4,17.4,0,0,0,8.14-1.74,10,10,0,0,0,4.73-5,26,26,0,0,0,1.59-6.74,131.54,131.54,0,0,0,.46-13.27V99h23.45v45.56q0,14.21-1.7,21a28.27,28.27,0,0,1-5.78,11.53A26.66,26.66,0,0,1,542,185a68.37,68.37,0,0,1-37.49,0,27,27,0,0,1-12.16-7.88,28.71,28.71,0,0,1-5.74-11.53q-1.74-6.75-1.74-21V99Z"/><path class="cls-1" d="M579.47,185.28V99h22.68l32.58,44.36a59.85,59.85,0,0,1,3.11,5.45c1.42,2.73,3,6,4.74,9.75-.47-3.57-.82-6.76-1-9.54s-.33-5.26-.33-7.43V99h22.55v86.25H641.22l-32.59-44.54a49.7,49.7,0,0,1-3.16-5.45q-2.15-4.09-4.68-9.63.71,5.42,1,9.6t.32,7.42v42.6Z"/><path class="cls-1" d="M682.83,185.28V99h23.69v86.25Z"/><path class="cls-1" d="M750.3,185.28,714.1,99h25l17.26,48.25c.16.5.49,1.74,1,3.68s1.13,4.57,1.92,7.86c.62-2.63,1.22-5,1.77-7.13s1-3.59,1.23-4.41L779.43,99h25l-36.19,86.25Z"/><path class="cls-1" d="M811.45,185.28V99h52.91v19h-30v15h28.27v18.45H834.38v14.48h30v19.36Z"/><path class="cls-1" d="M879.87,185.28V99h24.56q14.45,0,20.14,1.33a25.81,25.81,0,0,1,9.81,4.45,23.22,23.22,0,0,1,7.17,9,28.76,28.76,0,0,1,2.5,12.08q0,10-4.91,16.31t-14.31,8.35l23.45,34.71H921.7l-19.8-33.71v33.71Zm22-45.5h4.36q7.61,0,11.1-2.58t3.5-8.14q0-6.48-3.27-9.22t-11-2.75H901.9Z"/><path class="cls-1" d="M961.07,157.46a42,42,0,0,0,10.35,8.86,20.26,20.26,0,0,0,10.16,2.94,11.66,11.66,0,0,0,7.75-2.54,8,8,0,0,0,3-6.42,8.42,8.42,0,0,0-2.63-6.63q-2.62-2.31-11.89-4.8Q965.19,145.45,960,140t-5.24-15q0-12.39,8.28-20.22t21.48-7.83A46.74,46.74,0,0,1,998,98.77a43.31,43.31,0,0,1,12.11,5.78l-7.36,16.9a31.14,31.14,0,0,0-8.22-5.17,21.77,21.77,0,0,0-8.34-1.74,11,11,0,0,0-6.9,2,6.31,6.31,0,0,0-2.66,5.24A6.47,6.47,0,0,0,979,127q2.32,2,9,3.73l1,.29q14.38,3.9,18.91,8.56a20.92,20.92,0,0,1,4.64,7.64,29,29,0,0,1,1.6,9.88q0,13.76-9,22.09t-24,8.36a42.62,42.62,0,0,1-16.42-3.07,46.38,46.38,0,0,1-14.22-9.6Z"/><path class="cls-1" d="M1027.9,185.28V99h23.69v86.25Z"/><path class="cls-1" d="M1070.71,185.28V99h18q20.1,0,28.44,1.89a40.9,40.9,0,0,1,14.65,6.3,36.73,36.73,0,0,1,12.42,14.64,46.67,46.67,0,0,1,4.25,20.35,46.78,46.78,0,0,1-4.25,20.36,36.77,36.77,0,0,1-12.42,14.63,40.73,40.73,0,0,1-14.26,6.22q-8,1.85-24.87,1.86h-22ZM1094,165.92H1098q13.82,0,20.19-5.68t6.36-18.06q0-12.39-6.36-18.15T1098,118.25H1094Z"/><path class="cls-1" d="M1150.93,185.28,1180.65,99h29.48L1240,185.28h-23.42l-4.36-15.51h-33.42l-4.48,15.51Zm32.91-32.3h23.41l-8.8-28.41c-.27-.86-.64-2.26-1.12-4.18l-1.82-7.41c-.52,2.11-1,4.13-1.5,6s-1,3.77-1.51,5.54Z"/><path class="cls-1" d="M1248.22,185.28V99h18q20.1,0,28.45,1.89a40.75,40.75,0,0,1,14.65,6.3,36.78,36.78,0,0,1,12.44,14.64,46.82,46.82,0,0,1,4.25,20.35,46.92,46.92,0,0,1-4.25,20.36,36.82,36.82,0,0,1-12.44,14.63,40.57,40.57,0,0,1-14.26,6.22q-8,1.85-24.88,1.86h-22Zm23.31-19.36h3.94q13.85,0,20.2-5.68t6.37-18.06q0-12.39-6.37-18.15t-20.2-5.78h-3.94Z"/><path class="cls-1" d="M646.1,343.91h-35l-8.07-59.29c-.57-4.19-1.08-8.83-1.55-13.95s-.89-10.72-1.27-16.77a165.71,165.71,0,0,1-5.15,21.72c-.56,1.81-1,3.15-1.21,4l-18.65,64.26H550.31l-18.65-64.26c-.24-.88-.63-2.22-1.12-4A150.65,150.65,0,0,1,525.38,254q-.57,7.79-1.3,15.42t-1.79,15.22l-8.06,59.29H479.46l21.18-137.13h37l20.7,70.72c.13.5.38,1.32.75,2.44a91.69,91.69,0,0,1,3.66,16.2,67.41,67.41,0,0,1,1.4-8.1q1.05-4.46,2.81-10.72l20.91-70.54H625Z"/><path class="cls-1" d="M807.1,275.56a69.86,69.86,0,0,1-21.28,50.92,75,75,0,0,1-24,15.62,74.63,74.63,0,0,1-56.19,0A71.94,71.94,0,0,1,682,326.48a69.25,69.25,0,0,1-16.06-23.27,72.7,72.7,0,0,1,0-55.38A69.42,69.42,0,0,1,682,224.62,71.76,71.76,0,0,1,705.64,209,75,75,0,0,1,762,209a72.63,72.63,0,0,1,23.85,15.61,70.43,70.43,0,0,1,21.28,50.94ZM733.76,316a32.94,32.94,0,0,0,25.7-11.43q10.15-11.46,10.15-28.91,0-17.25-10.3-28.8a34.27,34.27,0,0,0-51.26,0q-10.15,11.48-10.15,28.84,0,17.64,10,29T733.76,316Z"/><path class="cls-1" d="M830.61,343.91V206.78h28.64q31.95,0,45.21,3a65.54,65.54,0,0,1,23.29,10,58.68,58.68,0,0,1,19.77,23.29q6.74,14.17,6.76,32.37t-6.76,32.35a58.61,58.61,0,0,1-19.77,23.29A65.08,65.08,0,0,1,905.07,341q-12.74,2.94-39.53,2.94H830.61Zm37.08-30.77H874q22,0,32.11-9t10.11-28.72q0-19.67-10.11-28.85T874,237.34h-6.27Z"/><path class="cls-1" d="M977.65,343.91V206.78h84.15v30.15h-47.68v23.85h44.95v29.34h-44.95v23h47.68v30.77Z"/><path class="cls-1" d="M1086.46,343.91V206.78h37.48V311.94h46.44v32Z"/><path class="cls-1" d="M1326,275.56a69.79,69.79,0,0,1-21.27,50.92,75.17,75.17,0,0,1-24,15.62,74.58,74.58,0,0,1-56.17,0,71.74,71.74,0,0,1-23.67-15.62,69.31,69.31,0,0,1-16.08-23.27,72.7,72.7,0,0,1,0-55.38,69.48,69.48,0,0,1,16.08-23.21A71.55,71.55,0,0,1,1224.56,209a74.94,74.94,0,0,1,56.31,0,72.56,72.56,0,0,1,23.86,15.61A70.26,70.26,0,0,1,1326,275.56ZM1252.67,316a33,33,0,0,0,25.7-11.43q10.14-11.46,10.15-28.91,0-17.25-10.3-28.8a34.26,34.26,0,0,0-51.25,0q-10.17,11.48-10.16,28.84,0,17.64,10,29T1252.67,316Z"/><path class="cls-1" d="M270.52,118.7H231.17a4.86,4.86,0,0,0-4.84,4.85v.17a4.86,4.86,0,0,0,4.84,4.86h39.35a4.87,4.87,0,0,0,4.84-4.86v-.17A4.87,4.87,0,0,0,270.52,118.7Z"/><path class="cls-1" d="M266.46,135.25v-.14c0-2.09-1.39-3.82-3.09-3.82H238.32c-1.7,0-3.09,1.73-3.09,3.82v.14c0,2.13,1.4,3.87,3.09,3.87h25.05C265.07,139.12,266.46,137.38,266.46,135.25Z"/><path class="cls-2" d="M392.2,344.27a12.73,12.73,0,0,1,4.89,1,11.93,11.93,0,0,1,4.07,2.77,12.08,12.08,0,0,1,2.57,3.95,12.72,12.72,0,0,1,.89,4.74,12.24,12.24,0,0,1-.95,4.83,11.74,11.74,0,0,1-2.72,4,12.59,12.59,0,0,1-4.08,2.67,12,12,0,0,1-4.67.93,12.18,12.18,0,0,1-4.76-.95,12,12,0,0,1-4-2.82,12.86,12.86,0,0,1-2.67-4,12.15,12.15,0,0,1,.07-9.44,12.52,12.52,0,0,1,2.8-4.11,11.91,11.91,0,0,1,3.94-2.6A12.12,12.12,0,0,1,392.2,344.27Zm0,2.29a10.49,10.49,0,0,0-3.87.72,9.93,9.93,0,0,0-3.24,2.12,10.45,10.45,0,0,0-2.27,3.36,10,10,0,0,0-.78,3.95,9.72,9.72,0,0,0,2.9,7,10.19,10.19,0,0,0,3.31,2.29,10.15,10.15,0,0,0,7.78,0,10.46,10.46,0,0,0,3.33-2.15,9.59,9.59,0,0,0,2.22-3.26,10.11,10.11,0,0,0,.77-3.92,10.26,10.26,0,0,0-.73-3.88,10,10,0,0,0-2.13-3.21,10.27,10.27,0,0,0-3.34-2.29A10,10,0,0,0,392.22,346.56ZM387,349.62h5.45a7.94,7.94,0,0,1,4.4,1,3.28,3.28,0,0,1,1.51,2.94,3.53,3.53,0,0,1-.77,2.3,4.15,4.15,0,0,1-2.11,1.37l3,6h-4.11l-2.59-5.39h-1.08v5.39H387Zm3.71,2.33v3.64H392a3.16,3.16,0,0,0,1.85-.44,1.53,1.53,0,0,0,.6-1.33,1.59,1.59,0,0,0-.63-1.41,3.53,3.53,0,0,0-2.05-.46Z"/><path class="cls-1" d="M133,256.31l-29.92,8.14-5-18.37,6.54-1.79,2.84,10.41,5.16-1.41L110,243.48l6.43-1.76,2.67,9.81,5.07-1.38-2.83-10.4,6.7-1.82Z"/><path class="cls-1" d="M117.22,233.28a15.4,15.4,0,0,0,2.89-4,7.23,7.23,0,0,0,.77-3.73,4.28,4.28,0,0,0-1.13-2.72,2.93,2.93,0,0,0-2.39-.91,3,3,0,0,0-2.3,1.14,11.73,11.73,0,0,0-1.38,4.41c-.58,3.09-1.47,5.33-2.67,6.68a7.59,7.59,0,0,1-5.24,2.31,9.46,9.46,0,0,1-7.46-2.4,10.82,10.82,0,0,1-3.41-7.47,16.6,16.6,0,0,1,.31-4.91,15.42,15.42,0,0,1,1.73-4.51l6.27,2.15a11,11,0,0,0-1.6,3.1,7.9,7.9,0,0,0-.38,3,4.07,4.07,0,0,0,.92,2.43,2.24,2.24,0,0,0,1.93.8,2.28,2.28,0,0,0,1.79-1,9,9,0,0,0,1.07-3.34L107,224q1-5.27,2.53-7a7.58,7.58,0,0,1,2.6-1.9,11.41,11.41,0,0,1,11.67,1.76,12.26,12.26,0,0,1,3.69,8.37,15.36,15.36,0,0,1-.64,6,16.71,16.71,0,0,1-3,5.39Z"/><path class="cls-1" d="M98.81,184.41l9.16,1.06a12.72,12.72,0,0,0-3.2,3.12,7.7,7.7,0,0,0-1.32,3.57,7.54,7.54,0,0,0,1.8,6.15,9.33,9.33,0,0,0,6.2,3,8.75,8.75,0,0,0,6.43-1.58A7.68,7.68,0,0,0,121,194.2a8,8,0,0,0-.47-3.78,13,13,0,0,0-2.45-3.77l9.2,1.07a20.29,20.29,0,0,1,1,4.15,17.15,17.15,0,0,1,0,4,17.32,17.32,0,0,1-1.15,4.6,13.4,13.4,0,0,1-2.27,3.71,15.55,15.55,0,0,1-6.44,4.58,17.1,17.1,0,0,1-8.12.9,17.41,17.41,0,0,1-6.3-1.9,15.66,15.66,0,0,1-4.85-4.08,14.3,14.3,0,0,1-2.8-5.32,16.29,16.29,0,0,1-.4-6.25,16.76,16.76,0,0,1,.94-3.94A21.21,21.21,0,0,1,98.81,184.41Z"/><path class="cls-1" d="M99.75,174.46l2.87-7.92,14.18,5.12c2.09.75,3.6,1.23,4.55,1.47a9.34,9.34,0,0,0,2.48.27,3.46,3.46,0,0,0,2.28-1,7.18,7.18,0,0,0,2-5.54,3.53,3.53,0,0,0-1.12-2.21,9.22,9.22,0,0,0-2.09-1.37c-.87-.42-2.35-1-4.43-1.78l-2-.72-12.2-4.4,2.87-7.93L124.55,154a32.87,32.87,0,0,1,6.88,3.14,10.09,10.09,0,0,1,3.19,3.36,9.47,9.47,0,0,1,1.17,5.07,21.37,21.37,0,0,1-1.4,6.66,20.94,20.94,0,0,1-3.18,6,9.65,9.65,0,0,1-4.15,3.16,10.21,10.21,0,0,1-4.59.54,33.44,33.44,0,0,1-7.3-2l-3-1.09Z"/><path class="cls-1" d="M140.81,155.1l-26.19-16.63,10.2-16.08,5.72,3.63-5.77,9.11,4.52,2.87,5.45-8.58,5.64,3.59-5.44,8.58,4.43,2.8,5.77-9.1L151,139Z"/><path class="cls-1" d="M153.68,135.79l-22.84-21,5.74-6.23,17.48,16.07,7.11-7.74,5.35,4.92Z"/><path class="cls-1" d="M167.88,120.47,158.44,89l8.61-6.2,26.84,18.89-6.84,4.94-4.54-3.61-9.76,7,1.95,5.48Zm2.83-16.34,6.84-4.92L169,92.76c-.27-.2-.67-.52-1.21-1L165.71,90l.83,2.08c.26.67.51,1.32.73,1.94Z"/><path class="cls-1" d="M343.75,127.58l-6.21-4.88L344.39,111c.48-.82,1.05-1.73,1.67-2.7s1.34-2,2.13-3.16a39,39,0,0,1-4,3.15l-.77.54-12.3,8.82-4.43-3.48,5.65-14c.09-.19.21-.49.37-.87a35.36,35.36,0,0,1,2.11-4.57c-.8.86-1.59,1.72-2.39,2.55s-1.61,1.67-2.45,2.47l-9.71,9.4-6.18-4.85,22.94-21.43L343.64,88l-6.2,15.48c-.05.11-.12.29-.21.53a21.08,21.08,0,0,1-1.61,3.4A13.53,13.53,0,0,1,337,106.2c.54-.43,1.2-.94,2-1.52l13.57-9.62,6.6,5.19Z"/><path class="cls-1" d="M376,146.57a15.85,15.85,0,0,1-12.16,2.74,16.92,16.92,0,0,1-6-2.38,16.94,16.94,0,0,1-7.34-10.35,16.12,16.12,0,0,1-.22-6.41,15.72,15.72,0,0,1,2.18-6,16.42,16.42,0,0,1,10.2-7.23,15.74,15.74,0,0,1,6.38-.08,16.48,16.48,0,0,1,6,2.32,16.9,16.9,0,0,1,7.37,10.38,16.4,16.4,0,0,1,.25,6.43,15.89,15.89,0,0,1-2.2,5.95A16.2,16.2,0,0,1,376,146.57Zm-17-8.25a7.42,7.42,0,0,0,5.47,3.24A10.35,10.35,0,0,0,375,134a7.75,7.75,0,0,0-6.7-9.45,10.5,10.5,0,0,0-10.66,7.54A7.41,7.41,0,0,0,359,138.32Z"/><path class="cls-1" d="M364.5,158.52l29.09-10.74,2.24,6.06a54.57,54.57,0,0,1,2.91,9.82,14.5,14.5,0,0,1-.31,5.73,13.07,13.07,0,0,1-3.38,6,18.15,18.15,0,0,1-13.74,5.07,13.15,13.15,0,0,1-6.48-2.36,14.38,14.38,0,0,1-3.87-4,43.59,43.59,0,0,1-3.73-8.16l-.49-1.33Zm9.42,5.45.49,1.34c1.16,3.12,2.63,5.15,4.44,6.12s4.09.93,6.87-.1,4.56-2.49,5.32-4.42.58-4.41-.57-7.53L390,158Z"/><path class="cls-1" d="M374.44,188.31l30.73-4.23,2.6,18.86-6.71.92-1.48-10.68-5.31.73L395.66,204l-6.61.92-1.39-10.06-5.2.71,1.47,10.68-6.88,1Z"/><path class="cls-1" d="M377.1,211.41l31,1.25-.34,8.47L384,220.18l-.42,10.5-7.26-.29Z"/><path class="cls-1" d="M383.28,267a15.7,15.7,0,0,1-9.87-7.62,17.13,17.13,0,0,1-2-6.15,16.85,16.85,0,0,1,3.29-12.27,16.22,16.22,0,0,1,4.79-4.25,15.59,15.59,0,0,1,6-2.15,16.13,16.13,0,0,1,6.36.41,15.77,15.77,0,0,1,9.86,7.69,16.19,16.19,0,0,1,2,6.08,16.9,16.9,0,0,1-3.3,12.29,15.95,15.95,0,0,1-17.15,6Zm-4.51-18.36a7.37,7.37,0,0,0,1,6.26,10.3,10.3,0,0,0,12.59,3.35,7.75,7.75,0,0,0,3-11.17,10.49,10.49,0,0,0-12.61-3.42A7.43,7.43,0,0,0,378.77,248.61Z"/><path class="cls-1" d="M237,113.4c-5.44-8.8-5.11-14.26-2.31-22a63.88,63.88,0,0,1,5.5-8c1.54-1.95,3.52-3.37,4.46-4.65a3.4,3.4,0,0,0,.45-1.83c-7.12,3.46-15.31,9.94-17.24,19.16-1.35,6.43.43,13.92,5,18.11C233.45,113.84,235.82,114.73,237,113.4Z"/><path class="cls-1" d="M223.45,258.08c6.92-.57,12.48-5.3,9.82-15-1.11-4-5.16-14.58-13.54-22-7.7-6.82-19.78-10.49-27.27-5.68-8.16,5.25-4.75,19.2-.54,25.71C199.47,252.77,209.16,259.23,223.45,258.08Zm-22-42.81a47.89,47.89,0,0,1,9.74,4.7c4.23,2.72,8.47,6.08,10.07,8.73a.65.65,0,0,1-.09.94c-4.26.87-7.08-2.26-6.56-5.06-.66-.8-1.18-1.47-1.72-2.14-1.23,4.92.7,10.55,8.51,9.19a2.16,2.16,0,0,0,1.33-1.34c2.53,4,7.32,9.73,7.32,16a1.79,1.79,0,0,0-.54.39,25.66,25.66,0,0,0-7.31-12.24c-9.19,0-12.81-4.3-11.7-13.31a50.23,50.23,0,0,0-9.19-5A1.6,1.6,0,0,1,201.48,215.27Zm14.77,39.38c-4.89-1.83-8.48-3.05-12.16-6.41-5.77-5.23-11.45-11.56-14-18.63-.25-.72.1-1.73,0-2.51.26,0,1.24.8,1.94,2.81,2.57,7.36,10.8,18.61,25.6,24.46C216.35,255.45,216.77,254.65,216.25,254.65Z"/><path class="cls-1" d="M273.78,265.48A12.41,12.41,0,1,0,286,277.91,12.31,12.31,0,0,0,273.78,265.48Zm-5.69,3.28a.73.73,0,0,1,.73.72.74.74,0,1,1-1.47,0A.73.73,0,0,1,268.09,268.76Zm5.38,19.8-2-.08c0-.33.25-8-7.6-10l.5-1.89C273.81,279,273.47,288.48,273.47,288.56Zm9.42-7.84a8.74,8.74,0,0,1-3.64-1.3,14.06,14.06,0,0,1-3.12-2.65,11.56,11.56,0,0,1-2.61-8.29l2.32.21a9.08,9.08,0,0,0,2,6.54,11,11,0,0,0,2.58,2.19,6.5,6.5,0,0,0,2.44,1Z"/><path class="cls-1" d="M261.51,112.61c-.42.47,0,1.45-.21,2.09l7.9,0a13.66,13.66,0,0,0,2.37-4.18,20.08,20.08,0,0,0,1.53-10.82c-2.47-12.29-12.23-15.27-17.78-23a1,1,0,0,0-.7.29c.59,7.82,3.68,11.51,8.38,19C265.6,102.75,265.54,108.37,261.51,112.61Z"/><path class="cls-1" d="M245.13,98.49c-.42-.15-.78.24-1,.1a23.77,23.77,0,0,1-2.48-9.94c-.41-.15-.29-1.8-.57-2-.89,1.13-1,1.41-1.91,2.43-5.09,8.68-5.6,16.16,2.3,24.75H257c8.12-11.33,3-19-2.92-29.2-1.37-3.11-1.81-7-2.78-10.34C241.24,79.52,244.86,86.91,245.13,98.49Z"/><path class="cls-1" d="M305.59,190.19c6.84.14,12.71,2,20.23,1-.27-9.08-1.53-17.18-2.36-24.58-6.42-.42-10.61-1.95-15.22-3.35-2.09-.14-3.07.41-8.37,1.4-1.95-.84-3.92-1.67-5.88-2.38-6.68,0-13.1,2-18.83,2-1.13,6.7-3.22,15.23-3.22,22.77,8.66,2.79,17.31-.56,25.83,5.43C300.71,192,300.71,192,305.59,190.19ZM277.4,168.13c.82,3.63-.15,9.91-.57,14.8,8.1.43,9.08.85,13.69.85,3.47,1.81,3.47,1.81,5.85,2.37.57-5.45,1.13-10.75,1.81-16.05a3.76,3.76,0,0,1,1.13.13c.14,5.31.28,10.61.56,16.06a22.56,22.56,0,0,0,6.69-1.67c4.2.83,7.95,1.95,13.69,1.67-.14-3.36-1.81-14-.14-16.63,1.66.84,1.66,14.12,1.53,18.73-8.52-.57-16.19-3.63-23.46.69-7.38-6.15-17-1.4-23-5C276.56,171.76,276.56,171.76,277.4,168.13Z"/><path class="cls-1" d="M203.69,163.81c-10.34-4.6-14.24.27-23,1.4-1.25,7.81-2.23,16.34-2.79,25.4,6.43.84,20.53-3.21,25.41,2.22a33.36,33.36,0,0,0,8.37-2.64c4.62,0,10.75,2.1,16.48,1a107.84,107.84,0,0,0-1.39-24.58C218.62,165.48,210.67,161,203.69,163.81Zm21.07,24.43-3.76.83c-6.14-1.11-11.31-2.37-16.34-.7a26.75,26.75,0,0,0-3.06-.28c-3.21-2.09-6.85-1.25-9.92-1.52a30,30,0,0,1-11.17,1.11c.71-6.27,1.41-12.43,2.24-18.56h1c-.42,5.58-.84,11.15-1.12,16.75,4.61.57,8.8-.71,14.66-.71,2.23.84,2.23.84,3.21.71.55-4.19,1.12-8.38,1.81-12.58h1c.28,4.48.56,9,1,13.55,6.14-2,10.89-.55,18.56.84-.28-6-.42-12-.56-17.87a6.91,6.91,0,0,0,1,.41C224.91,184.89,224.91,184.89,224.76,188.24Z"/><path class="cls-1" d="M305.88,221.25c-5.51-8.72-18.71-10.3-29.49-3.5-5.25,3.32-9.66,9.53-10.62,13.44-1.17,4.84-.85,13-6.31,16.45l-43,27.44,3.37,4.36,42.45-26.92c8.44-4.62,10.6-.59,17.29.76,3.6.73,11.45-.53,16.77-3.89C307.12,242.59,311.39,230,305.88,221.25Zm-2.63,3.5a12.18,12.18,0,0,1,1,3.5l-.62.39-1.49.93c-.17-.25-.52-.82-.89-1.4l-1-1.58,3-1.86Zm-21.42,7.19-.58.37-2.41,1.51-.94-1.48-.94-1.51c.54-.33,2.46-1.54,3-1.86C280.28,229.49,281.49,231.41,281.83,231.94Zm-1.14-3.45,3-1.86,1.87,3-1.16.74-1.79,1.11c-.31-.47-1.29-2-1.73-2.74Zm.12,5.12,1.48-.92.93,1.48c.4.62.78,1.24.95,1.5l-3,1.87-1.87-3Zm3.16.1-.94-1.49,1.5-.94,1.47-.92,1.87,3c-.56.34-2.43,1.52-2.95,1.86Zm6.69-4.2.94,1.49-.68.43c-.78.48-1.86,1.17-2.28,1.42v0l-1.87-3,2.94-1.87C289.87,228.28,290.27,228.89,290.66,229.51Zm-.2-2,1.48-.91,1.51-1,0,0,.91,1.45.91,1.47,0,0-3,1.88c-.17-.28-.55-.9-.94-1.51Zm-2.13,6.55,1.88,3-3,1.86-1.87-3Zm.78-.49c.57-.34,2.42-1.52,2.94-1.84h0l1.88,3-1.24.79L291,236.59Zm3.69-2.31,3-1.88,0,0,.93,1.48c.36.58.74,1.18.91,1.44v0l-1.49.93-1.49.93Zm3.23-3.12-.91-1.47c-.38-.59-.74-1.17-.91-1.45l0,0,3-1.88c.34.55,1.52,2.46,1.87,3l-3,1.86Zm-2-3.92-.36.22-1.88-3,3-1.88c.34.54,1.54,2.46,1.87,3Zm-1.1.7-.91.57L290,226.8l-1.87-3,3-1.88Zm-3.72,2.33c-.54.33-2.39,1.51-3,1.85l-1.87-3,2.95-1.85C287.71,224.83,288.9,226.74,289.25,227.27ZM284,225.39l-1.88-3,3-1.88.85,1.36,1,1.64Zm-.77.49-3,1.85-.93-1.5-.94-1.48,1.49-.94c.6-.37,1.18-.73,1.46-.92Zm-4.65.82.94,1.5-3,1.88-.94-1.49-.93-1.49,1.5-.94c.62-.38,1.22-.77,1.49-.95C277.78,225.48,278.17,226.09,278.55,226.7Zm-1.4,6.1c.39.61.78,1.22.94,1.49l-.24.15c-.7.43-2.25,1.41-2.74,1.73-.33-.54-1.53-2.47-1.87-3l3-1.87Zm-2.78,3.83-2.49,1.57-.48.3-1.88-3,3-1.88Zm-2.51,2.62,3-1.88c.34.53,1.54,2.45,1.87,3l-3,1.88-1.88-3Zm3.73-2.36,3-1.86,1.88,3-3,1.88C277.13,239.34,275.92,237.43,275.59,236.89Zm5.32,1.87.94,1.49.93,1.49-1.25.77c-.67.45-1.42.91-1.73,1.11-.32-.54-1.53-2.45-1.86-3Zm1.68,1-.94-1.48,3-1.89c.34.54,1.54,2.46,1.88,3l-3,1.87C283.36,241,283,240.4,282.59,239.78Zm4.39.37c.17.27.56.88.94,1.5l.93,1.49-3,1.87-.94-1.5c-.39-.61-.77-1.23-.94-1.5Zm1.69,1-.95-1.52,2.95-1.86,1.88,3-3,1.84C289.43,242.4,289,241.8,288.67,241.2Zm2.78-3.86,1.44-.93,1.51-.94c.17.26.55.88,1,1.49l.93,1.5-3,1.85Zm4.64-.84-.94-1.5,1.49-.94,1.48-.94h0l1.89,3c-.53.35-2.46,1.55-3,1.9Zm2.29-4.61-.9-1.44c-.38-.61-.75-1.22-.94-1.49v0l3-1.87c.16.28.57.93,1,1.57l.89,1.42-.9.56c-.77.48-1.73,1.09-2.09,1.3Zm3.46-9.41c.39.6.76,1.22.93,1.48-.53.35-2.44,1.55-3,1.89-.34-.54-1.53-2.45-1.88-3l1.26-.81,1.49-.92A10.77,10.77,0,0,1,301.84,222.48Zm-1.9-1.91-2.5,1.55c-.34-.53-1.54-2.46-1.87-3,.25-.17.67-.42,1-.66A13.28,13.28,0,0,1,299.94,220.57ZM295.69,218l-.66.44-.48-.78C294.94,217.77,295.32,217.89,295.69,218Zm-5.16-.9a18.12,18.12,0,0,1,3,.37l.86,1.37-3,1.87-1.87-3Zm.1,4.07-3,1.87-1.08-1.68-.79-1.29,1.48-.93,1.49-.93Zm-2.56-4.07.23.37-1.49.92c-.61.39-1.22.76-1.48.94h0l-1-1.56A19.78,19.78,0,0,1,288.07,217.11Zm-4.58,1,1.09,1.72-3,1.87-1.39-2.23A22.29,22.29,0,0,1,283.49,218.08Zm-4.9,2.22c.27-.16.55-.28.83-.43l1.44,2.29-1.17.71c-.7.46-1.48.94-1.79,1.14h0l-1.36-2.17A23.49,23.49,0,0,1,278.59,220.3Zm-2.71,2.16,1.27,2-.91.56-2.08,1.3-.83-1.31A21.4,21.4,0,0,1,275.88,222.46Zm-3.1,3.34c.27.42.52.82.64,1l-2.22,1.39A19.68,19.68,0,0,1,272.78,225.8Zm1.11,1.76.93,1.49c.39.62.78,1.22.94,1.5l-3,1.87-.94-1.49-.93-1.5Zm-3.61,2.53.82,1.29c.39.64.78,1.24.94,1.51-.53.32-2.42,1.52-3,1.87A17,17,0,0,1,270.28,230.09ZM269,236.36l1.65,2.61h0l-1.25.77A14.23,14.23,0,0,1,269,236.36Zm1.83,6.82a10.87,10.87,0,0,1-1.13-2.57l1.41-.89,1.88,3-1.69,1.07C271.16,243.56,271,243.4,270.83,243.18Zm3.77,3.71a13.74,13.74,0,0,1-2.7-2.47l1.56-1,.06.11,1.81,2.88Zm.87.49.33-.22.38.61C275.93,247.65,275.71,247.51,275.47,247.38ZM274.2,243c.53-.35,2.45-1.55,3-1.88l1.88,3-.56.36L276.07,246Zm3.39,5.36h0l-1-1.64,1.5-.94,1.49-.94.94,1.48c.39.62.77,1.23.93,1.5-.3.2-1.07.67-1.76,1.12A17.23,17.23,0,0,1,277.59,248.34Zm3.23.91,1.09-.66c.12.17.32.5.55.87A13.14,13.14,0,0,1,280.82,249.25Zm1.33-1.92-.93-1.47-.94-1.51,1.48-.93,1.48-.94.94,1.5c.39.61.78,1.22.94,1.51C284.59,245.81,282.69,247,282.15,247.33Zm1.36,2.13-.85-1.35,3-1.88,1.81,2.88A20.43,20.43,0,0,1,283.51,249.46Zm2.86-3.7,3-1.86.95,1.49c.38.61.78,1.22.93,1.48l-3,1.89Zm4.46,2.41.87-.55.11.15C291.48,247.9,291.16,248.06,290.83,248.17Zm.21-3.25-.94-1.48c.53-.35,2.4-1.51,3-1.87l1.87,3L292,246.41C291.81,246.15,291.42,245.54,291,244.92Zm3.74,1.34a16.87,16.87,0,0,1-2.2,1.12l-.13-.23,2.95-1.86.21.34C295.33,245.83,295.09,246.07,294.78,246.26Zm1.54-1.2-.14-.26,2-1.28A23.89,23.89,0,0,1,296.32,245.06Zm-.62-1-1.87-3,2.95-1.85c.34.53,1.54,2.45,1.87,3C298.13,242.54,296.27,243.69,295.7,244.05Zm6.09-5.05a25.69,25.69,0,0,1-1.47,2.16l-.91.58-1.89-3,3-1.89,1.32,2.08S301.79,239,301.79,239Zm.54-.86-1.08-1.73,2.44-1.54A18.1,18.1,0,0,1,302.33,238.14Zm-1.59-2.5-1.87-3,1.5-.94c.6-.39,1.22-.76,1.48-.93l.94,1.48.94,1.5Zm3.4-2.86-.61-1-.94-1.49,1.5-.94.28-.17A15.35,15.35,0,0,1,304.14,232.78Z"/><path class="cls-1" d="M157.48,287.56l13.66-10.24,4.55,3.08-4.42,16.48-3.62-2.44.94-2.86-5.17-3.48L161.11,290ZM166,286l3.62,2.45,1.63-5.33c0-.16.14-.41.27-.76L172,281l-.87.78-.81.7Z"/><path class="cls-1" d="M172.67,298.45,184,286.94l3.29,3.23a18.75,18.75,0,0,1,2.5,2.81,4.83,4.83,0,0,1,.73,1.88,4.48,4.48,0,0,1-.23,2.14A5.59,5.59,0,0,1,189,299a4.87,4.87,0,0,1-2.8,1.52,4.59,4.59,0,0,1-3-.76l-1.42,7.71-3.55-3.48,1.8-7.09-4.43,4.5Zm8.91-3.16.58.56A3.37,3.37,0,0,0,184,297a1.69,1.69,0,0,0,1.53-.62,2.1,2.1,0,0,0,.77-1.64,3.17,3.17,0,0,0-1.1-1.81l-.62-.62Z"/><path class="cls-1" d="M182.09,307.72l16.22-5.35,3.34,4.37L192.2,321l-2.66-3.49,1.81-2.39-3.79-5-2.81,1.08Zm8.54,1.25,2.66,3.47,3.23-4.53c.1-.14.27-.35.5-.63s.53-.67.89-1.13c-.37.17-.72.33-1.07.46a9.93,9.93,0,0,1-1,.41Z"/><path class="cls-1" d="M204.61,327a8,8,0,0,0,0,2.57,3.81,3.81,0,0,0,.86,1.78,2.17,2.17,0,0,0,1.32.77,1.44,1.44,0,0,0,1.27-.38,1.53,1.53,0,0,0,.6-1.19,6.18,6.18,0,0,0-.81-2.26,7.16,7.16,0,0,1-1-3.61,4,4,0,0,1,1.44-2.6,4.93,4.93,0,0,1,3.84-1.35,5.64,5.64,0,0,1,3.77,2,8.94,8.94,0,0,1,1.42,2.12,8.19,8.19,0,0,1,.71,2.41l-3.27,1.07a5.58,5.58,0,0,0-.32-1.78,3.84,3.84,0,0,0-.79-1.38,2.13,2.13,0,0,0-1.15-.72,1.26,1.26,0,0,0-1.48,1.25,4.59,4.59,0,0,0,.6,1.72l.09.19a8.12,8.12,0,0,1,1.16,3.71,3.84,3.84,0,0,1-.48,1.6,5.9,5.9,0,0,1-5.38,2.94,6.33,6.33,0,0,1-4.17-2.31,7.92,7.92,0,0,1-1.62-2.68,8.75,8.75,0,0,1-.43-3.19Z"/><path class="cls-1" d="M210.72,341.2l10.71-12.07,3.34,2.95-10.71,12.09Zm18.47-12.66-5.1.63-1.27-1.12,4.06-1.55Z"/><path class="cls-1" d="M221.4,345.16l3.38,2.31-6.71,3.81-2.51-1.72Z"/><path class="cls-1" d="M239.1,356.88l-4.1-.62,2.43-16L242,341a18.5,18.5,0,0,1,3.7.83,4.36,4.36,0,0,1,1.69,1.18,4.64,4.64,0,0,1,1.07,2,6.93,6.93,0,0,1-.75,4.94,4.41,4.41,0,0,1-1.62,1.59,4.12,4.12,0,0,1-1.7.51,13.14,13.14,0,0,1-3-.22l-.73-.11-.78-.12Zm1.33-8.78.82.12a4.16,4.16,0,0,0,2.24-.1,1.7,1.7,0,0,0,.84-1.38,1.64,1.64,0,0,0-.39-1.51,3.94,3.94,0,0,0-2.07-.75l-.87-.13Z"/><path class="cls-1" d="M247.92,358.28l4-16.59,5.49-.55,7.1,15.53-4.35.42-1.09-2.79-6.21.6-.55,3Zm5.55-6.6,4.35-.42-2.15-5.14c-.06-.16-.15-.42-.28-.76s-.28-.8-.47-1.36c-.06.41-.11.8-.17,1.17s-.12.71-.18,1.06Z"/><path class="cls-1" d="M268.79,355.55,261.86,341l4.16-2a18.1,18.1,0,0,1,3.49-1.39,4.77,4.77,0,0,1,2,0,4.24,4.24,0,0,1,1.92.95,5.52,5.52,0,0,1,1.4,1.84,4.9,4.9,0,0,1,.48,3.15,4.5,4.5,0,0,1-1.75,2.56l6.77,4-4.48,2.14-6.06-4.13,2.71,5.72Zm.08-9.47.74-.34a3.42,3.42,0,0,0,1.65-1.33,1.74,1.74,0,0,0-.06-1.64,2.13,2.13,0,0,0-1.29-1.3,3.25,3.25,0,0,0-2.07.42l-.79.37Z"/><path class="cls-1" d="M281.21,349.16,275.6,333l4.33-3.4,14.36,9.22-3.43,2.72-2.43-1.77-4.9,3.87,1.12,2.78Zm1.12-8.55,3.43-2.71-4.58-3.16-.66-.49-1.12-.88c.16.38.32.73.49,1.06s.28.67.41,1Z"/><path class="cls-1" d="M301.46,330.67,292,322.74l-2.33,2.77-2.92-2.45,7.49-8.92,2.93,2.46-2.35,2.78,9.44,7.93Z"/><path class="cls-1" d="M311.43,306.29a8,8,0,0,1,2.09,2.59,8.11,8.11,0,0,1,.89,3.17,9.06,9.06,0,0,1-.41,3.35,8.76,8.76,0,0,1-1.63,2.94,8.51,8.51,0,0,1-5.83,3.07,8.17,8.17,0,0,1-3.31-.31,8.49,8.49,0,0,1-2.91-1.6,8.21,8.21,0,0,1-2.07-2.6,7.9,7.9,0,0,1-.87-3.2,8.35,8.35,0,0,1,.38-3.32,9.17,9.17,0,0,1,1.64-3,8.84,8.84,0,0,1,2.63-2.11,8.29,8.29,0,0,1,3.21-1,8.43,8.43,0,0,1,3.28.32A8.22,8.22,0,0,1,311.43,306.29Zm-1.9,9.64a3.86,3.86,0,0,0,.91-3.18,5.4,5.4,0,0,0-5.21-4.36,4,4,0,0,0-3.88,4.62,4.88,4.88,0,0,0,1.83,3.1,5,5,0,0,0,3.37,1.29A3.89,3.89,0,0,0,309.53,315.93Z"/><path class="cls-1" d="M318.4,309.69,306.67,298.6l2.32-2.45a26.86,26.86,0,0,1,3.91-3.62,7.71,7.71,0,0,1,2.73-1.18,6.7,6.7,0,0,1,3.58.21,8.49,8.49,0,0,1,3.32,2,8.79,8.79,0,0,1,2.22,3.2,7,7,0,0,1,.4,3.56,7.56,7.56,0,0,1-1,2.74,23.11,23.11,0,0,1-2.93,3.61l-.52.54Zm.37-5.66.5-.53a5.54,5.54,0,0,0,1.81-3.47,5.45,5.45,0,0,0-4.92-4.65,5.36,5.36,0,0,0-3.37,2l-.5.53Z"/><path class="cls-1" d="M337.63,281.66a8.27,8.27,0,0,1,1.4,3,8.13,8.13,0,0,1,.11,3.3,8.86,8.86,0,0,1-1.19,3.15,8.89,8.89,0,0,1-5.33,3.91,8.36,8.36,0,0,1-3.34.15,8.08,8.08,0,0,1-5.58-3.33,8.32,8.32,0,0,1-1.41-3,8.06,8.06,0,0,1-.08-3.32,8.57,8.57,0,0,1,1.15-3.14,9,9,0,0,1,2.3-2.47,8.91,8.91,0,0,1,3-1.44,8.34,8.34,0,0,1,8.92,3.18Zm-4.15,8.92a3.87,3.87,0,0,0,1.64-2.88,5.41,5.41,0,0,0-4-5.47,4,4,0,0,0-3.24.68,3.91,3.91,0,0,0-1.64,2.88,5.52,5.52,0,0,0,4,5.52A3.9,3.9,0,0,0,333.48,290.58Z"/><path class="cls-1" d="M151.65,283.87l-3.54-2.14,8.33-13.83,3.95,2.38a18.68,18.68,0,0,1,3.1,2.18,4.63,4.63,0,0,1,1.12,1.73,4.77,4.77,0,0,1,.2,2.29,6.19,6.19,0,0,1-.87,2.35,6.35,6.35,0,0,1-1.7,1.93,4.48,4.48,0,0,1-2.1.85,4.33,4.33,0,0,1-1.77-.17,14.28,14.28,0,0,1-2.66-1.35l-.63-.38-.67-.4Zm4.59-7.61.71.42a3.91,3.91,0,0,0,2.12.76,2,2,0,0,0,1.51-2.49,4,4,0,0,0-1.64-1.48l-.75-.46Z"/><path class="cls-1" d="M341.77,282.32a8.65,8.65,0,0,0,2.54.31,4,4,0,0,0,1.89-.61,2.25,2.25,0,0,0,.94-1.2,1.48,1.48,0,0,0-.2-1.31,1.61,1.61,0,0,0-1.09-.77,6,6,0,0,0-2.35.5,7.27,7.27,0,0,1-3.72.48,3.93,3.93,0,0,1-2.38-1.78,5,5,0,0,1-.81-4,5.74,5.74,0,0,1,2.54-3.45,8.85,8.85,0,0,1,2.3-1.11,8.3,8.3,0,0,1,2.49-.37l.61,3.38a6.06,6.06,0,0,0-1.82.07,4,4,0,0,0-1.48.6,2.19,2.19,0,0,0-.86,1,1.17,1.17,0,0,0,.13,1.09,1.21,1.21,0,0,0,.91.56,4.7,4.7,0,0,0,1.78-.36l.2-.06a8.1,8.1,0,0,1,3.82-.64,3.71,3.71,0,0,1,1.52.71,5.88,5.88,0,0,1,2.17,5.74,6.43,6.43,0,0,1-2.87,3.8,8.23,8.23,0,0,1-2.87,1.23,9.16,9.16,0,0,1-3.22,0Z"/><path class="cls-3" d="M160.09,331c2.35-3.93-5.05-10.94-7.65-12.7a18.91,18.91,0,0,0-12.66-3.06l-1.31-1.1,10.16-13.3c-8.22-3.35-15.34-4.62-19.24-.23-4.12,5.66-1.22,18.37,9.63,26.78C142.8,330.26,157.22,335.71,160.09,331Z"/><path class="cls-3" d="M164.23,301.4c14.19,12.36,26,28.08,28.58,31.72s14.56,16.36,21.1,20.72,15.5,12,36.93,12.38c21.42-.39,30.38-8,36.92-12.38s18.56-17.08,21.11-20.72,14.4-19.36,28.59-31.72a60,60,0,0,1,29.62-14.14l-16-25.85c-10-.76-20.71,3.49-32,11.66-9.52,6.88-10.36,8.1-27.32,27.23s-38,32-40.9,32.09c-2.94-.11-23.92-13-40.89-32.09S192.16,280,182.63,273.07c-11.3-8.17-22-12.42-32-11.66l-16,25.85A60.06,60.06,0,0,1,164.23,301.4Z"/><path class="cls-3" d="M331.65,317.35c1.15,1.49.32.45,3.74,4.4a32.59,32.59,0,0,1,5.66-5.89,74.25,74.25,0,0,1,8.3-5.91l-2.84-4.82a56.33,56.33,0,0,0-9,5.48C336.9,311.07,331,316.5,331.65,317.35Z"/><path class="cls-3" d="M185.33,267.63c.27,0,.94-1,1.22-1-18.43-33.51-25.23-68.55-28.38-107.66,0-.68,0-6.14-.73-8.59a113.23,113.23,0,0,0-12.73,104.75C160.09,253.81,167.66,255.56,185.33,267.63Z"/><path class="cls-3" d="M316.36,267.63C334,255.56,341.6,253.81,357,255.09a113.2,113.2,0,0,0-12.74-104.75c-.67,2.45-.72,7.91-.72,8.59-3.16,39.11-10,74.15-28.39,107.66C315.42,266.59,316.08,267.63,316.36,267.63Z"/><path class="cls-3" d="M189.05,62.62a164,164,0,0,0-17.93,8.62l55.45,14Z"/><path class="cls-3" d="M336.84,74.93a165.5,165.5,0,0,0-19.08-10.12L274.67,88.58Z"/><path class="cls-3" d="M208.49,56.09a164.77,164.77,0,0,0-17.33,5.69L231,81.09Z"/><path class="cls-3" d="M353.38,300.8l10.15,13.3-1.31,1.1a18.89,18.89,0,0,0-12.65,3.06c-2.61,1.76-10,8.77-7.63,12.7,2.84,4.75,17.26-.7,21-3.61,10.85-8.41,13.76-21.12,9.64-26.78C368.72,296.18,361.6,297.45,353.38,300.8Z"/><path class="cls-3" d="M155.5,305.13,152.66,310a71.64,71.64,0,0,1,8.29,5.91,32.46,32.46,0,0,1,5.67,5.89c3.42-3.95,2.59-2.91,3.75-4.4.66-.85-5.25-6.28-5.85-6.74A56.82,56.82,0,0,0,155.5,305.13Z"/><path class="cls-3" d="M328.84,329.39h-1.66c-28.72,33.52-52.57,44.39-76.34,43.93-23.76.46-47.61-10.41-76.33-43.93h-1.67c-7,10.87-13.4,11.55-26.65,11.83a163.64,163.64,0,0,0,209.31,0C342.25,340.94,335.81,340.26,328.84,329.39Z"/><path class="cls-3" d="M331.65,317.35c1.15,1.49.32.45,3.74,4.4a32.59,32.59,0,0,1,5.66-5.89,74.25,74.25,0,0,1,8.3-5.91l-2.84-4.82a56.33,56.33,0,0,0-9,5.48C336.9,311.07,331,316.5,331.65,317.35Z"/><path class="cls-3" d="M316.36,267.63C334,255.56,341.6,253.81,357,255.09a113.2,113.2,0,0,0-12.74-104.75c-.67,2.45-.72,7.91-.72,8.59-3.16,39.11-10,74.15-28.39,107.66C315.42,266.59,316.08,267.63,316.36,267.63Z"/><path class="cls-3" d="M164.23,301.4c14.19,12.36,26,28.08,28.58,31.72s14.56,16.36,21.1,20.72,15.5,12,36.93,12.38c21.42-.39,30.38-8,36.92-12.38s18.56-17.08,21.11-20.72,14.4-19.36,28.59-31.72a60,60,0,0,1,29.62-14.14l-16-25.85c-10-.76-20.71,3.49-32,11.66-9.52,6.88-10.36,8.1-27.32,27.23s-38,32-40.9,32.09c-2.94-.11-23.92-13-40.89-32.09S192.16,280,182.63,273.07c-11.3-8.17-22-12.42-32-11.66l-16,25.85A60.06,60.06,0,0,1,164.23,301.4Z"/><path class="cls-3" d="M185.33,267.63c.27,0,.94-1,1.22-1-18.43-33.51-25.23-68.55-28.38-107.66,0-.68,0-6.14-.73-8.59a113.23,113.23,0,0,0-12.73,104.75C160.09,253.81,167.66,255.56,185.33,267.63Z"/><path class="cls-3" d="M208.49,56.09a164.77,164.77,0,0,0-17.33,5.69L231,81.09Z"/><path class="cls-3" d="M160.09,331c2.35-3.93-5.05-10.94-7.65-12.7a18.91,18.91,0,0,0-12.66-3.06l-1.31-1.1,10.16-13.3c-8.22-3.35-15.34-4.62-19.24-.23-4.12,5.66-1.22,18.37,9.63,26.78C142.8,330.26,157.22,335.71,160.09,331Z"/><path class="cls-3" d="M189.05,62.62a164,164,0,0,0-17.93,8.62l55.45,14Z"/><path class="cls-3" d="M336.84,74.93a165.5,165.5,0,0,0-19.08-10.12L274.67,88.58Z"/><path class="cls-3" d="M353.38,300.8l10.15,13.3-1.31,1.1a18.89,18.89,0,0,0-12.65,3.06c-2.61,1.76-10,8.77-7.63,12.7,2.84,4.75,17.26-.7,21-3.61,10.85-8.41,13.76-21.12,9.64-26.78C368.72,296.18,361.6,297.45,353.38,300.8Z"/><path class="cls-3" d="M155.5,305.13,152.66,310a71.64,71.64,0,0,1,8.29,5.91,32.46,32.46,0,0,1,5.67,5.89c3.42-3.95,2.59-2.91,3.75-4.4.66-.85-5.25-6.28-5.85-6.74A56.82,56.82,0,0,0,155.5,305.13Z"/><path class="cls-3" d="M328.84,329.39h-1.66c-28.72,33.52-52.57,44.39-76.34,43.93-23.76.46-47.61-10.41-76.33-43.93h-1.67c-7,10.87-13.4,11.55-26.65,11.83a163.64,163.64,0,0,0,209.31,0C342.25,340.94,335.81,340.26,328.84,329.39Z"/><path class="cls-1" d="M250.84,40.11c-96.18,0-174.63,78.46-174.63,174.68s78.45,174.67,174.63,174.67S425.48,311,425.48,214.79,347,40.11,250.84,40.11Zm86,34.82L274.67,88.58l43.09-23.77A165.5,165.5,0,0,1,336.84,74.93ZM208.49,56.09l22.46,25L191.16,61.78A164.77,164.77,0,0,1,208.49,56.09Zm-19.44,6.53,37.52,22.64-55.45-14A164,164,0,0,1,189.05,62.62Zm-59.66,238c3.9-4.39,11-3.12,19.24.23l-10.16,13.3,1.31,1.1a18.91,18.91,0,0,1,12.66,3.06c2.6,1.76,10,8.77,7.65,12.7-2.87,4.75-17.29-.7-21.07-3.61C128.17,318.94,125.27,306.23,129.39,300.57Zm21.22-39.16c10-.76,20.72,3.49,32,11.66C192.16,280,193,281.17,210,300.3s38,32,40.89,32.09c2.95-.11,23.93-13,40.9-32.09s17.8-20.35,27.32-27.23c11.3-8.17,22-12.42,32-11.66l16,25.85a60,60,0,0,0-29.62,14.14c-14.19,12.36-26,28.08-28.59,31.72s-14.55,16.36-21.11,20.72-15.5,12-36.92,12.38c-21.43-.39-30.38-8-36.93-12.38s-18.55-17.08-21.1-20.72-14.39-19.36-28.58-31.72a60.06,60.06,0,0,0-29.63-14.14Zm-5.9-6.32a113.23,113.23,0,0,1,12.73-104.75c.68,2.45.73,7.91.73,8.59,3.15,39.11,10,74.15,28.38,107.66-.28,0-1,1-1.22,1C167.66,255.56,160.09,253.81,144.71,255.09Zm170.42,11.5c18.43-33.51,25.23-68.55,28.39-107.66,0-.68.05-6.14.72-8.59A113.2,113.2,0,0,1,357,255.09c-15.38-1.28-23,.47-40.62,12.54C316.08,267.63,315.42,266.59,315.13,266.59ZM349.35,310a74.25,74.25,0,0,0-8.3,5.91,32.59,32.59,0,0,0-5.66,5.89c-3.42-3.95-2.59-2.91-3.74-4.4-.67-.85,5.25-6.28,5.84-6.74a56.33,56.33,0,0,1,9-5.48Zm-179,7.4c-1.16,1.49-.33.45-3.75,4.4a32.46,32.46,0,0,0-5.67-5.89,71.64,71.64,0,0,0-8.29-5.91l2.84-4.82a56.82,56.82,0,0,1,9,5.48C165.12,311.07,171,316.5,170.37,317.35Zm80.47,61.71a163.42,163.42,0,0,1-104.65-37.84c13.25-.28,19.68-1,26.65-11.83h1.67c28.72,33.52,52.57,44.39,76.33,43.93,23.77.46,47.62-10.41,76.34-43.93h1.66c7,10.87,13.41,11.55,26.66,11.83A163.37,163.37,0,0,1,250.84,379.06ZM363,327.35c-3.78,2.91-18.2,8.36-21,3.61-2.37-3.93,5-10.94,7.63-12.7a18.89,18.89,0,0,1,12.65-3.06l1.31-1.1-10.15-13.3c8.22-3.35,15.34-4.62,19.24-.23C376.74,306.23,373.83,318.94,363,327.35Zm52-108.18c0,1.28-.09,2.58-.15,3.87a2.56,2.56,0,0,1,0,.39c-.06,1.32-.14,2.64-.24,3.95,0,0,0,0,0,0-.08,1.29-.2,2.58-.33,3.87,0,.15,0,.29-.05.44-.13,1.25-.27,2.5-.43,3.75,0,.12,0,.24,0,.37-.17,1.29-.34,2.56-.54,3.82a1,1,0,0,0,0,.22c-.19,1.22-.39,2.42-.61,3.64,0,.14-.06.3-.08.47-.22,1.15-.44,2.32-.67,3.46-.05.22-.09.48-.14.7-.24,1.16-.49,2.31-.76,3.46,0,.19-.09.37-.13.56-.26,1.07-.51,2.13-.78,3.18-.05.22-.12.45-.17.66-.28,1.1-.59,2.22-.9,3.33-.07.22-.11.41-.18.62-.32,1.12-.66,2.23-1,3.33l-.22.67c-.3,1-.62,2-.95,2.93-.1.31-.22.63-.33,1-.31.91-.64,1.84-1,2.78-.13.32-.25.67-.37,1-.36,1-.73,1.92-1.11,2.89-.13.32-.25.65-.38,1-.32.8-.64,1.59-1,2.37l-.66,1.57c-.31.72-.62,1.44-1,2.17-.21.44-.41.89-.62,1.33-.38.84-.76,1.68-1.16,2.51l-.52,1.09c-.36.73-.73,1.45-1.1,2.16-.25.52-.53,1-.78,1.54s-.67,1.31-1,1.94-.6,1.13-.91,1.68l-1.15,2.06c-.22.4-.47.8-.69,1.2s-.39.67-.59,1l-6.47,11.64-.08.14,0-.2c.51-3.65,0-6.07-.77-7.62L361.56,264s0-.06,0-.08c.16-.33.3-.66.45-1,.28-.64.56-1.28.83-1.94.11-.29.21-.56.34-.84.23-.57.45-1.16.68-1.71q.21-.57.42-1.11c.22-.57.43-1.17.64-1.74.15-.4.29-.82.44-1.22s.31-1,.48-1.42.32-1,.47-1.48.27-.86.41-1.29.34-1.13.52-1.7c.1-.36.19-.71.29-1.06.17-.64.35-1.26.52-1.89.08-.34.17-.67.25-1,.18-.69.35-1.38.51-2.09q.09-.31.15-.63.27-1.17.51-2.34c0-.2.08-.4.13-.6.17-.82.32-1.63.46-2.46a3.86,3.86,0,0,0,.09-.49c.16-.81.29-1.64.42-2.47,0-.17.05-.35.08-.52.12-.84.24-1.69.34-2.53,0-.14.05-.28.08-.43.09-.87.2-1.74.28-2.61,0-.13,0-.27.06-.42.08-.9.15-1.81.23-2.73,0-.08,0-.17,0-.26.08-.94.13-1.91.19-2.87v-.18c.05-1,.1-2,.11-2.94,0-.05,0-.09,0-.14,0-1,.05-2,.05-3,0-58-41.07-106.67-95.6-118.48a11.14,11.14,0,0,0-.31-1.07,16.67,16.67,0,0,1,.87,5.63,17.29,17.29,0,0,1-.39,3.29,114.06,114.06,0,0,1,66.48,44.54,4.68,4.68,0,0,1,.11.47H267.43v9.76h66.75c0,16.33-.38,22.7-3.87,39.11H267.43v9.07h61c-10.88,41-38.7,99.94-76.82,115.79l11.68-177.13a3.08,3.08,0,0,0-3.29-3.42H242.93a3.15,3.15,0,0,0-3.44,3.3l10.67,177.2c-38.11-14.11-72-80.24-75.74-115.74h60.81V198H172c-3.91-14.1-4.67-20.67-5.49-39.11l68.72,0v-9.74h-77s0,0,.05-.08a114.15,114.15,0,0,1,60.86-43.37c1.65-.44,3.32-.84,5-1.23,0,0,.12-.11.3-.17a2.7,2.7,0,0,1,.39-.08c-.15-1.1-.24-2.26-.31-3.45a27.78,27.78,0,0,1,.22-4.33c-53.08,12.11-93.87,59.36-95.06,115.72,0,.88,0,1.74,0,2.61s0,2.05,0,3.06V218c0,1,.07,2,.12,3v.12c.05,1,.12,1.94.19,2.92,0,.07,0,.16,0,.22.07,1,.16,1.9.26,2.86a.78.78,0,0,0,0,.21c.09.95.2,1.89.32,2.84a.71.71,0,0,1,0,.21c.12.9.25,1.8.4,2.71a2.85,2.85,0,0,0,0,.29c.14.87.29,1.74.44,2.62,0,.14.05.29.08.45.16.84.32,1.69.49,2.53,0,.14.06.32.1.45.15.79.32,1.57.51,2.33l.17.77c.17.7.34,1.4.52,2.11.06.29.15.59.23.89.17.62.33,1.25.5,1.85.1.4.22.78.33,1.16.16.58.34,1.14.51,1.73l.39,1.22c.14.45.28.87.42,1.29s.37,1.1.56,1.66l.43,1.23c.19.53.38,1,.58,1.56.13.36.28.72.41,1.09.22.57.45,1.14.68,1.72.15.38.31.76.48,1.15.25.59.49,1.18.75,1.75l.26.6c.07.16.14.34.22.51l-23,37.27c-.87,1.56-1.47,4-.9,7.74l0,.2-.1-.14-3.09-5c-.36-.54-.7-1.09-1-1.64s-.75-1.19-1.12-1.8-.66-1.06-1-1.61-.75-1.27-1.14-1.91c-.22-.4-.46-.8-.68-1.2-.39-.68-.77-1.37-1.16-2.06l-.91-1.68c-.34-.63-.69-1.3-1-1.94s-.51-1-.78-1.54c-.36-.71-.73-1.43-1.08-2.16-.18-.36-.36-.74-.53-1.09-.4-.83-.79-1.67-1.17-2.51l-.61-1.33c-.32-.73-.64-1.45-.95-2.17-.22-.5-.44-1.05-.66-1.57-.33-.78-.66-1.57-1-2.37-.12-.31-.26-.64-.38-1-.37-1-.75-1.92-1.1-2.89-.13-.33-.25-.68-.37-1-.34-.94-.66-1.87-1-2.78l-.33-1c-.32-1-.64-1.94-.95-2.93l-.21-.67q-.51-1.65-1-3.33c-.06-.21-.12-.4-.19-.62-.31-1.11-.61-2.23-.89-3.33-.07-.21-.12-.44-.17-.66q-.4-1.57-.78-3.18c0-.19-.09-.37-.13-.56-.26-1.15-.52-2.3-.76-3.46,0-.22-.09-.48-.14-.7-.23-1.14-.45-2.31-.67-3.46,0-.17-.06-.33-.09-.47-.21-1.22-.42-2.42-.6-3.64,0-.06,0-.13,0-.22-.19-1.26-.38-2.53-.54-3.82,0-.13,0-.25,0-.37-.16-1.25-.31-2.5-.44-3.75,0-.15,0-.29,0-.44-.13-1.29-.25-2.58-.35-3.87v0c-.1-1.31-.18-2.63-.26-3.95a2.55,2.55,0,0,0,0-.39c-.06-1.29-.11-2.59-.14-3.87,0-.12,0-.24,0-.34,0-1.35,0-2.69,0-4A164.54,164.54,0,0,1,168.79,72.57h0c.13-.09.27-.16.4-.24l56.74,18.59a33.12,33.12,0,0,1,10.25-12.55L210.63,55.54A163.74,163.74,0,0,1,229,52l9.88,24.66a39.58,39.58,0,0,1,4.65-2.33L230.41,51.79a162.08,162.08,0,0,1,20.43-1.29c.46,0,.91,0,1.37,0l-3,20.41c.78-.46,3.14-4.81,4.33-3.53l1-16.84A160.58,160.58,0,0,1,274,52.16L258.47,75.45s0,0,0,.06c1.17,1.25,2.42,2.39,3.71,3.52l14-26.56A165,165,0,0,1,295,56.56L264.6,81.09s0,0,.06,0h0c1.29,1.12,2.57,2.22,3.83,3.41l28.55-27.39a165.23,165.23,0,0,1,18,6.49L269.72,85.72a27,27,0,0,1,5.83,8L338.6,76a165.61,165.61,0,0,1,60.88,69A169.53,169.53,0,0,1,415,208.52c0,.44,0,.87.05,1.32s0,1,0,1.44c0,1.16.06,2.33.06,3.51,0,1.35,0,2.69-.06,4C415,218.93,415,219.05,415,219.17Z"/></svg>